<svg xmlns="http://www.w3.org/2000/svg" xmlns:xlink="http://www.w3.org/1999/xlink" viewBox="0 0 402.7 176.1"><defs><path id="a" d="M0 0h402.7v176.1H0z"/></defs><clipPath id="b"><use xlink:href="#a" overflow="visible"/></clipPath><path clip-path="url(#b)" d="M187.8 171.7c-1.3-2.1-1.9-4.9-2-8.4 0-2.9.7-5.4 2.3-7.5 1.9-2.5 4.4-3.8 7.6-3.8 3.1 0 5.4 1 7.1 3.2 1.5 1.9 2.3 4.2 2.3 7 0 4.6-.8 7.9-2.4 10.1-1.6 2.2-4 3.3-7.4 3.3-3.4.1-5.9-1.2-7.5-3.9m2.1-14.7c-1.2 1.8-1.8 3.8-1.7 6 0 3.5.6 6.2 1.9 8.1 1.2 1.9 3.1 2.8 5.5 2.8 2.9 0 5-1.5 6.2-4.2.8-1.9 1.2-4.2 1.2-6.9 0-2.9-.6-5.2-1.8-6.7-1.2-1.6-3-2.3-5.2-2.3-2.7 0-4.7 1.1-6.1 3.2"/><path clip-path="url(#b)" fill="#ED1C24" d="M195.8 156.8c-2.5.6-5 1.1-5.4 4.4-.5 3.7.6 8.8 3.6 9.3 3.9.6 6.6-3.3 6.8-8.2.1-2.7-2-4.5-4.1-5.3l-.9-.2z"/><path clip-path="url(#b)" fill="#00A651" d="M224.6 171.8c1.5.7 2.9 1.4 4.1.1 1.4-1.4 2.4-4 1-5.3-1.8-1.7-4.7-2-6 1.1-.6 1.3-.4 2.7.4 3.8l.5.3z"/><path clip-path="url(#b)" d="M184.4 174.3c0 .2-.1.4-.3.6-.2.2-.5.3-.8.3-.2 0-.6-.1-1.1-.2-.6-.2-1.1-.3-1.5-.3-.6 0-1.6 0-2.8.1-1.2.1-2.2.1-2.8.1-.5 0-1.2.1-2.2.2-.9.1-1.6.2-2.1.2-.1 0-.3 0-.5-.1-.3 0-.5-.1-.7-.1-.6 0-.9-.2-1.1-.6-.1-.2-.2-.8-.2-1.6 0-2.3.7-4.1 2.1-5.4.6-.6 2.5-1.9 5.6-3.7 1.7-1.1 3-1.9 3.6-2.5 1.2-1.1 1.8-2.4 1.7-4 0-1-.8-1.8-1.9-2.3-1-.5-2-.8-2.9-.7-1.2 0-2.5.4-3.6 1l-2.6 1.8c-.5.4-.8.4-.9.4-1.2 0-1.3-.3-1.3-.6s.1-.5.4-.8c1.4-1.2 2.6-2 3.6-2.5 1.4-.7 2.8-1.1 4.3-1.1 1.9 0 3.6.4 5 1.2 1.6.9 2.3 2.1 2.4 3.4 0 1-.2 1.9-.5 2.7-.3.8-.8 1.6-1.5 2.3-.8.9-2.3 1.9-4.5 3.1-2.3 1.3-3.9 2.2-4.7 2.9-1.5 1.3-2.2 3-2.2 4.9v.7l4.5-.4c2.6-.2 4.4-.2 5.5-.2.9 0 1.7.1 2.5.3 1.3.3 1.5.7 1.5.9"/><path clip-path="url(#b)" fill="#FFD800" d="M169 160.3l6.3-4.1s2.7-1.2 4.1 1.2c.9 1.2-1.7 3.2-1.7 3.2l-5.6 3.9-3.1-4.2z"/><path clip-path="url(#b)" fill="#00A651" d="M183.2 164.2l-2.3 6.9c-2.1-.8-8 .1-8 .1s8.4-4.7 10.3-7"/><path clip-path="url(#b)" d="M215.6 175.6h-6c-.7 0-1.2 0-1.5-.1-.5-.2-.8-.6-.8-1.2 0-1 .8-1.5 2.4-1.5H211c0-.5 0-1.2-.1-2.1-.1-.9-.1-1.7-.1-2.1 0-1.3.1-3.2.3-5.9.2-2.6.3-4.5.3-5.9-1.4 1.1-2.2 1.6-2.6 1.6-.4 0-.8-.2-1-.5-.3-.3-.5-.7-.5-1 0-.5.4-1.1 1.3-1.7.5-.4 1.3-1 2.3-1.8.9-.9.6-1.3 1.4-1.3.7 0 1 .4 1 1.2 0 .2 0 .6-.1 1-.1.5-.1.8-.1 1.1 0 .3 0 .8.1 1.5v1.5c0 1.2-.1 2.9-.4 5.1-.2 2.3-.4 4-.4 5.1 0 .6 0 1.3.1 2.1s.1 1.5.1 2.1h2.8c.4 0 .8.1 1.1.4.3.3.4.6.4 1s-.1.8-.4 1c-.1.2-.5.4-.9.4M232.8 162.6c-1.3-1.2-2.7-1.5-5.2-1.6h-.4c-1.4 0-2.9.3-4.4 1l-1 .4.4-1c.6-1.7 1.4-3.5 2.6-4.6 1.2-1.1 3.4-2.6 3.4-2.7 1.4-1.3 1.6-1.7 1.6-1.9 0-.3-.1-.5-.4-.8-.3-.2-.5-.3-.9-.3-.1 0-.5.1-1.4.9 0 0-1.4 1.3-3 2.7-1.8 1.5-5.3 7.1-5.3 12.1 0 2.7.6 4.8 1.7 6.4 1.3 1.9 3 2.4 6.1 2.8 2.4 0 4.1-.7 5.7-2.4 1.4-1.4 2.8-3.2 2.8-5.7-.1-2-.9-4-2.3-5.3m.1 5.7c0 1.9-.9 3-1.8 4-1 1.3-2.5 1.9-4.4 1.9-1.3 0-3.7-.3-4.5-2.5-.8-2.1-1.1-3.3-1.1-4.8 0-.6 0-1.1.1-1.7v-.2l.2-.1c1.6-.9 2.1-1.2 2.3-1.2.8-.3 1.8-.5 2.8-.5 1.9 0 3.4.4 4.4 1.2 1 .7 2 2.3 2 3.9"/><path clip-path="url(#b)" fill="#BA141A" d="M171.4 143.5s-9.1-5.5-12.6-6.3c-3.5-.9-8.1-.7-8.1-.7s-1.5 0-2.6-1c-.7-.6-.4-2.7-.4-2.7l16.9-114.6s0-1.4.8-2.1c.8-.7 2.4-.9 2.4-.9l10-1.8-6.4 130.1z"/><path clip-path="url(#b)" fill="#ED1C24" d="M255.3 126.5l-21-95.4c-.4-1.3-1.7-2.6-2.7-2.9l-35.8-9.6-16.3-4.8c-3.1-1-4.8.6-4.8 3.5l-5.4 122.4c-.1 1.4 1 4.7 4.8 3.7l2.9-.8 77-13.3c1.3-.3 1.7-1.5 1.3-2.8"/><path clip-path="url(#b)" d="M189.9 15.8S189-.1 198.6 0c12.3.1 14.1 21.8 14.1 21.8l-5.4-1.4s-.4-15.1-8-16.5c-4.7-.8-4.5 13.2-4.5 13.2l-4.9-1.3z"/><path clip-path="url(#b)" fill="#00A651" d="M255.5 126.8l-20.9-95.7c-.4-1.3-1.5-2.5-2.6-2.9l-36.2-9.7c17.1 7.3 38.2 22.1 40.6 50.7 3.7 43.7-40 65.8-59.4 73.5l77.1-13.1c1.2-.3 1.8-1.6 1.4-2.8"/><path clip-path="url(#b)" fill="#C4161C" d="M169 139.8c-.1 1.4 1 4.7 5 3.7l3-.8c20.1-7.7 65.4-30.1 61.6-73.8-2.2-25.1-24.9-42.9-42.8-50.3C211.3 28 229 47.3 229 66.3c0 29.3-24.4 53-54.5 53-1.4 0-2.8-.1-4.2-.2l-1.3 20.7z"/><path clip-path="url(#b)" fill="#FFF" d="M208.9 81c-.6-5-2-8.9-3.7-13.3-1.8-4.6-7.5-.6-10.7.2-5.9 1.4-5.3 6-6.9 11.1-1.5 4.7-3.4 9.2-3 14.2 3-3.6 4.9-9.4 6.2-13.9 2.1 4.1-.5 8.9 0 13.4.8 7 0 12.1 4.4 17.7 1.8-4.3.4-11.7.8-16.5 2.1 1.3.6 15.5.6 18.8 0 2.4 2.5 8.4 3 3.1.3-2.7.6-5.5 1.1-8.2.9-5.3 1.3-10.7 1.6-16 .3-5.5 1.3-11.3 1.1-16.9 1.8 2.1 4.1 5.1 4.4 8.1 1.5-.3 1-.8 1.1-1.8"/><path clip-path="url(#b)" fill="#FFF" d="M197.5 68.1l-.7-1.1-1.3-1.5-1.2-2.9.2-1.5.6-1.5 1-1.1 1.1-.8 1.7.2.9 1.4.3 1.6-.2 1.5-.4 2.1-1.4 2.1M191.6 107.4l-1.1 1-1 1-1.1.8-.9.9-1 .8-.9.9.3 1.4.3 1.5.4 1.4.1 1.6.5 1.3.3 1.5.3 1.4.2 1.2.8-1.2.7-1.3.7-1.4.8-1v-3.1l.2-1.4v-1.6l.1-1.4.1-1.4.2-1.4M195.7 115c0-.9-.1-1.9-.1-2.8-.5-.1-1-.3-1.5-.4-.5 2.3-1 3.9-.1 6 .9-.8 1.5-1.8 1.7-2.8M220.9 68.4c-1.2-1.7-1.8-4.5-3.7-5.5l-1.2.1-.7.9c-.5 1.9-.6 3.5-1.5 5.3l2.8 1.3 2.3-.3 2-1.8"/><path clip-path="url(#b)" fill="#FFF" d="M226.4 83.1c-1.8-2.6-1.7-6.8-2.4-9.8-.2-.7-.7-3.6-1.7-3.9-2-.6-2.5 2.9-4.8 3.2-2.3.3-3.5-2-5.6-.3-1.1.9-1.8 3.9-2.3 5.3-1.2 2.9-4.2 7.6-3.8 10.5 2.4-3.6 4.8-7.7 7.5-11.4 1.6 3.3.3 5.5-1.2 8.5-1.4 2.9-.6 7.3-.1 10.2.5 3 1.1 5.9.8 9-.3 2.5-1 6.4.8 8.2 2.3-4 3.8-8.7 4.8-13.1 1.3-5.4 3.4-9.7 2.6-15.3 0 0-1.9-3.2.6-6.6.6.5 3.8 5.1 4.6 7.6.2-.8.2-1.4.2-2.1M233.9 82.6c-1.9.9-3.9-.8-4.2-2.7 1.9-1.1 2.9-5 5.4-3.3 1.9 1.3 1.5 5-.3 6.5l-.9-.5"/><path clip-path="url(#b)" fill="#FFF" d="M237 85.1c-2.2-.5-6.9-4.4-8.9-.5-1.3 2.5-3.3 7-3.7 9.7 1.8-1.2 3.2-3 4.2-4.9 0 4-1.6 8.4-1.1 12.5.3 2.8.8 5.1 1.5 7.4.6 1.9 1.5 4.2 1.8 6.3 1-4.3.4-8.6.2-12.9 1.4 4.8 1.6 10.4 3.3 14.9 2.5-3.3 2.4-14.6 2.6-18.9.1-1.7-.5-8 1.2-8.9 3.5-1.8 6.5-1.3 6.8-6.5-2.6 2.3-4.9 3.1-7.9 1.8"/><path clip-path="url(#b)" fill="#FFF" d="M222.4 91.5c1.1 1.3 2.3 2.7 3.3 4.1 1.2 1.7 1.1 2.8 1 4.9-.2 3.6-.6 7.3-.9 10.9-1.1-1.4-2.5-2.6-3.7-3.9-1.1-1.1-.6-3.6-.5-5.2.3-3.5.9-7.3.8-10.8M181.5 100.1c1.6.4 3.1 1.2 4.1 2.4 1.2 1.6 1.8 4.1 2.4 7.1-.2-.7-.9.2-1.3-.2-.5-.5-1.3-1.8-2.1-2.1-2.1 5.1 0 11.3-1.6 16.5-2.2-2.5-1.3-7-2.4-10.1l-1.2 8.1c-1-2.8-2.1-5.7-2.5-8.7l.1.9c-.5-2.4-.9-4.5-.1-7-.8.4-1.3.3-2.2.6-.4.1-1.3.7-1.7.8-.9.2-1.8.3-2.7.2l.1-1c3.5-2.4 6-6.3 10.1-6.7l1-.8"/><path clip-path="url(#b)" fill="#FFF" d="M180.9 100.8l-2.5-.9-.7-.9c.8-1.9 1.4-4 3.7-4.6l1.1.2.7.9c0 1.3 0 2.6-.1 3.8-.4.8-1.2 1.3-2.2 1.5M180.2 123.9l-.3-1.9-.8.1-.3 1.3-.1 1.9-.3 1.6h.6l.8-1.7M212.5 113.3l-.9.8v2.6l.8 1.5 1.1-2v-1.4"/><path clip-path="url(#b)" d="M222 10.8c2.5 0 4.5 2 4.5 4.5s-1.9 4.6-4.4 4.6c-2.5 0-4.5-1.9-4.5-4.5-.1-2.5 1.9-4.5 4.4-4.6zm0 .7c-2 0-3.6 1.8-3.6 3.9 0 2.1 1.7 3.8 3.7 3.8s3.6-1.7 3.6-3.8c-.1-2.2-1.7-3.9-3.7-3.9zm-.8 6.5h-.8l-.1-5c.4-.1.8-.1 1.4-.1.8 0 1.3.1 1.6.4.3.2.5.6.5 1 0 .7-.4 1.1-1 1.2.4.1.7.5.9 1.2.1.8.3 1.1.3 1.3h-.8c-.1-.2-.2-.6-.3-1.3-.1-.6-.5-.9-1.1-.9h-.6V18zm0-2.8h.6c.7 0 1.2-.3 1.2-.9 0-.4-.3-.9-1.2-.9-.3 0-.5 0-.6.1v1.7zM401.3 118.2c-.6-1.4-.9-2.7-1.3-4-.3-1-.6-2-.9-3.1-.2-.6-1.1-.9-1.8-.7-.4.1-.7.4-.9.7-.1.2-.1.6 0 .8.3 1.7.9 3.5 1.5 5.2.8 2.6 1.7 5.3 1.9 7.9.1.6-.1 1.2-.6 1.6-.3.3-1 .5-1.7.5-.9.2-1.8.3-2.6.3-1.6 0-3.1-.3-4.9-.5l-.2-.1c-.6-.1-1-.3-1.3-.5-1.6-2.2-2.2-4.5-2.7-6.9l-.1-.4c-.3-1.4-.7-2.8-1.2-4.1-.4-1.3-.8-2.4-1.1-3.7-.1-.7-.8-1.1-1.6-1.1-.5.1-.8.2-1.1.5-.2.3-.3.6-.2.8.3 1.5.8 2.9 1.2 4.3.4 1.1.7 2.3 1.1 3.6l.2.9c.4 1.6.8 3.2 1.5 4.7-.1.1-.3.2-.4.3-.9 1.1-3.8 1.7-6 1.7-1 0-2-.1-2.7-.3-2.8-.8-5-3.1-5.9-5.9-.2-.7-.9-1.1-1.7-1-.4.1-.8.3-1 .7-.2.2-.2.6-.1.9.5 1.4 1.2 2.9 2.3 4-.7.5-1.5.8-2.4.9-1.6.3-3.6.6-5.7.6-2.5 0-4.5-.4-6.1-1.3l-.1-.1c-.1-.5-.2-1-.4-1.5-.2-.7-.3-1.4-.3-1.8-.1-.7-.7-1.2-1.5-1.2h-.1c-.4.1-.8.3-1.1.5-.2.2-.3.5-.3.8 0 .5.2 1.1.3 1.7.2.9.4 1.8.3 2.5-.7.3-1.3.3-1.8 0-1.9-.9-2.5-2.1-3.3-3.6-.1-.2-.3-.6-.5-.9l-.1-.1c-.2-.6-.7-.9-1.4-.9-.4 0-.8.2-1.1.4-.2.2-.3.5-.3.8v.7l.1.3c.3 1.2.6 2.3.1 3.4h-.6c-.4.1-.8.2-1.2.2-.4 0-.7-.1-1-.4-1.4-1.3-2-2.9-2.5-4.4-.2-.7-.9-1.1-1.7-.9-.4.1-.8.3-1 .6-.1.3-.2.6-.1.9l.2.6c.4 1 .8 2 1.4 3.1-2.3-.1-5.1-.2-7.1 0-2.3.1-4.5.1-6.7.1-.1-.1-.1-.2-.1-.1 0-.2-.1-.3-.2-.5l-.2-.2-.1-.1c-.9-1.3-3.4-4.3-7.2-4.3-.2 0-.5 0-.8.1-2.7.9-4.7 3.3-4.6 5.9v.2c0 .1 0 .3.1.4.1.2.1.3.1.4.1.2.1.4.2.6l-.1.1.5.1c.4.1.8.2 1.3.2.2 0 .4-.1.7-.1h1c2.4.1 4.7.1 6.7.1h.6c.2 1.3.4 3-.2 4.2-.7 1.3-2.2 1.9-4.6 1.9-1.5 0-3-.2-4.4-.4h-.3c-.8-.2-1.6.1-1.8.8-.1.3-.1.6 0 .9.2.4.5.6.9.7 1.7.3 3.6.6 5.5.6 2.2 0 4-.5 5.4-1.3 2.2-1.3 3-3.7 2.5-7V129.2c2.1-.1 4.3-.1 6.4-.2h2.2c.8.1 1.6.1 2.5.1.7-.1 1.6-.1 2.4 0h.9c.3 0 .7-.2.9-.5.8.5 1.8.6 2.7.6h1c.4 0 .7-.1 1.1-.1h.2c.8 0 1.8-.3 2.2-1.6 1.3 1.3 2.8 2 4.5 2 .6 0 1.1 0 1.8-.2l1.2-.5c.2-.1.4-.3.6-.5v-.1c3.3 1.4 7.3 1.6 12.8.6 1.3-.3 2.6-.8 3.7-1.5 1.2.9 2.7 1.7 4.2 2 .8.2 1.9.2 2.9.2 2.7 0 6.1-.6 7.9-2 .2.3.4.5.7.9 1.8 1.5 2.6 1.5 5.5 1.5h1.5c.6.1 1.3.1 2.1.1 2 0 4.5-.2 5.4-1.6.9-1.1 1.4-2.1 1.5-3.3 0-1.7-.5-3.6-1-5.2-.2-.7-.3-1.1-.4-1.7m-85.1 5.3c1.6.5 2.9 1.5 3.8 2.8-1.8 0-3.6-.1-5.7-.1h-1.2c-.1 0-.2.1-.2.1.1-1.2 1.2-2.2 1.9-2.7.2-.1.5-.2.7-.2.2-.1.5 0 .7.1M296.2 115.8c-1 .1-1.9.1-2.8.1-1.2 0-2.5 0-3.7.3-.5 0-.8.2-1 .5-.2.3-.2.6-.1.9.1.5.7 1 1.4 1 .1 0 .2 0 .3-.1.2 0 .4 0 .6-.1.3 0 .6-.1.8-.1.6-.1 1.1-.1 1.6-.1h.8c.8 0 1.7 0 2.6-.1.4 0 .8-.2 1-.5.2-.2.3-.5.2-.9-.1-.5-.7-1-1.5-1h-.2z"/><path clip-path="url(#b)" d="M364.8 115.4c1.3.2 2.5.2 3.5.2 1.2 0 2.3-.1 3.4-.3.4-.1.7-.4.9-.7.1-.3.1-.7 0-.9-.2-.5-.8-.8-1.4-.8-.2 0-.3 0-.4.1-1.9.2-3.8.1-5.4 0-.8-.2-1.6.3-1.7.8-.1.3-.1.6.1.9.2.3.5.6 1 .7M295.3 120.4c-.9-.1-2.3-.4-3.9-.4-3.5 0-5.8 1.2-6.5 3.4-.5 1.6-.1 2.9 1 3.8 1.5 1.1 3.4 1.7 5.8 1.7 1.6 0 3.4-.3 5.5-.8.4-.1.7-.4.9-.7.1-.3.1-.6 0-.9-.2-.5-.8-.8-1.4-.8-.2 0-.3 0-.4.1-1.6.4-3.3.8-4.8.8-1.9 0-3.2-.5-4-1.4-.2-.4-.3-.8-.1-1.1.1-.4.4-.6.8-.8 1-.5 2.1-.7 3.3-.7 1.8 0 3.5.4 4.7.8 1.4.5 4.7 1.7 4.9 4 .1 1.4-.4 2.6-1.7 3.9-2.1 2-8.1 5-13.2 4.6-6.9-.4-9.6-3.5-10.3-4.5-.6-1-1-1.9-.9-2.7.1-1.6 1.7-3 4-3.3.4-.1.7-.3.9-.7.1-.2.2-.6.1-.9-.2-.5-1.1-.9-1.8-.8-1.5.4-2.7.7-3.8 1.8-1.2 1.1-1.8 3-1.8 4 .1 1.3.3 3 1.1 4.3 1 1.5 4.2 5 10.6 5.7 0 .1.7.1 1.7.1 2.4 0 7-.4 11.2-3.1 2.2-1.3 3.7-2.4 5.3-4.5 1.8-2.4 2-4.9.3-6.7-1.3-2.1-3.8-3.4-7.5-4.2M267.8 40.4c.6 0 1.1-.1 1.6-.3l.2-.1c.1 0 .2-.1.3-.1l.2-.3c.3-.3.4-.6.4-.9 0-1-1.2-1.8-2.7-1.8-1.5 0-2.7.8-2.7 1.8s1.2 1.7 2.7 1.7M310.4 52.5c0 1 1.2 1.7 2.7 1.7.6 0 1.1-.1 1.6-.3h.1l.2-.2.1-.1h.1l.2-.1c0-.1 0-.1.1-.1.2-.3.4-.5.4-.9 0-1-1.2-1.7-2.7-1.7-1.7 0-2.8.7-2.8 1.7M289.9 33.8c.7 4.7 1.4 9.6 2.9 13.7.1.6.7 2.3 2.8 2.3 0 0 5 .1 10.4.1 3.1 0 5.8-.1 7.9-.1 2.1-.2 4.9-.1 7.6 0h4.3c3.3 0 5.8-.2 7.9-.5h.5c.4 0 .7-.1 1-.4.2-.2.3-.2.4-.2.5-.4.6-.8.6-1 0-.8-.8-1.4-1.7-1.4h-1.8c-10.6 0-20.7-5.8-25.9-9.3l-.1-.3c-.2-.4-.6-.7-1.2-.7h-.2c-.3 0-.6.2-.8.3l-.2.1h-.3v.3h-.1v.1l-.1.1c-1.2 2-2 3.6-2.4 5.1-.1.3 0 .8.2 1 .2.2.5.3.8.4l.2.1c.2 0 .5-.2.7-.3.3-.2.5-.4.5-.7.4-1.3.9-2.3 1.4-3.2 3.6 2.4 8.9 5.5 15.1 7.5h-4.2c-1.1.1-2.2.1-3.2.1l-6.7-.1H296c-1.4-4.7-2.3-10.1-3-15l-.6-3.9c-.2-.6-.9-1.1-1.7-1.1h-.3c-.5.1-.9.3-1.1.7-.2.3-.3.7-.2 1 .2 1.7.5 3.5.8 5.3"/><path clip-path="url(#b)" d="M251.2 46.1c2.5 3.2 6.9 3.4 10.8 3.7h14.2c7.4 0 9-3.6 9.3-5.8.3-1.7-.3-3.4-1.7-4.9-.7-.7-1.4-1.3-2.3-1.9-1-.6-1.9-.9-2.8-1.1-.4-.1-.8-.1-1.1 0-.4.2-.7.5-.8.8-.1.4-.1.8.1 1.2.2.3.4.6.8.7h.1c.9.3 1.6.5 2.3 1 .6.3 1.1.8 1.5 1.3.6.6 1 1.2 1 1.9 0 1 0 1.8-.7 2.4-1.3 1.2-4.6 1.7-10.6 1.6h-8l-.9-.1c-.3 0-.5-.1-.8-.1-2.7 0-5.5-.2-7.6-1.8-1-1.3-2-3.1-1.3-4.3.8-1.3 3.5-1.8 7.8-1.7h.1l1.2-.2.1-.1c.1-.1.7-.8.6-1.5-.1-.4-.3-.7-.6-.9-.3-.2-.7-.3-1.1-.2-.3 0-1 0-1.8.1h-.6c-2.5.1-4 .1-4.4.3-2.1.7-3.5 1.9-4.1 3.3-.8 2 .2 4.4 1.3 6.3zM331.4 56.5c-.8 0-1.4.7-1.4 1.5 0 .4.2.8.5 1 .3.3.7.4 1 .4h1.1c4.1 0 8.4 0 12.3-1.9 2.3-1.1 3.9-2.5 5.1-4.1.9-1.2 1.3-2.3 1.4-3.7h3.5c4.3 0 9.9-.2 15.6-1.8 1.1.5 2.8.8 5.5.9h.2l1.1.1c1 0 2.2.1 3.4.1 2.9 0 7-.4 9-3.9l.3-.6c.1-.1.2-.3.3-.4 1 2.7 3.5 4.4 6.6 4.4.4 0 .8 0 1.2-.1 1.7-.3 2.8-1.4 3.5-2.4.9-1.4 1-2.9.5-4.3-.7-1.7-2.6-3.2-4.8-3.8-2-.6-3.7-.6-5.1 0-2.1.9-3.1 2.6-4 4.3l.6.2-.6-.2c-.4.7-.8 1.3-1.2 2-.8 1.1-1.9 1.7-3.5 2 0 0-2.1.2-4.7.2-2.1 0-3.7-.1-4.9-.5 3.4-2.5 4.8-5 4.4-7.8-.3-2.3-1.7-4.3-3.8-5.3-4.9-2.4-9.5-1.2-12.5 3.2-.3.3-.3.7-.3 1 .1.4.3.8.6 1 .7.4 1.6.2 2-.4 1.2-1.9 1.4-2.3 3.6-2.8 1.9-.3 3.7-.1 5.3.6 1.3.6 1.8 1.9 2 2.9.6 3.1-2.6 5.1-5.2 6.7l-.4.2c-.1 0-.1.1-.2.1 1-1.6 1.1-3.4 0-4.9-1-1.5-2.7-2.1-5.2-1.8-1.7.2-3.3 1.1-4.3 2.2-.7.9-1 1.9-.9 2.9.1 1.1.8 2.1 1.8 3.1-3.1.2-6.3.2-10.6-.1h-.5c-.4 0-.8.2-1 .4-.3.3-.4.7-.4 1 0 1.3-.2 2.1-.8 3.2-.4.7-.8 1.2-1.3 1.6-1.5 1.3-3.1 2.2-4.8 2.7-2.9.8-5.9.8-8.8.8h-1.2zm61.7-16.4c2.2-.4 4.4.3 5.9 1.8.5.5.7 1.2.4 2-.2.8-.9 1.3-1.7 1.6-2.2.4-4.2-.8-4.9-2.9v-.1l-.1-.2-.1-.1c-.2-.2-.4-.5-.7-.5-.1 0-.2-.1-.3-.1.4-.4.9-1 1.5-1.5m-30.9 3.2c.4-1.2 1.8-1.8 3-1.8.6 0 1.2.1 1.7.4.2.4.2.9 0 1.3-.3.7-1 1.5-2.1 2-.1-.1-.3-.2-.4-.3-.7-.1-1.6-.6-2.2-1.6"/><path clip-path="url(#b)" fill="#ED1C24" d="M339.7 98.8c0-1.8 2.3-3.2 5.1-3.2s5 1.4 5 3.2c0 1.7-2.3 3.2-5 3.2-2.9 0-5.1-1.5-5.1-3.2M365.1 72.5l.6 15.2s29.6 1.4 28.9-4.1c-.9-7.6-17-11.7-29.5-11.1"/><path clip-path="url(#b)" fill="#00A651" d="M290.8 73.9c-26.7-11.7-33.3 9.3-16.3 13.6 13.5 3.4 26 3.9 30.1 0 3.7-3.5 2.2-6.6-13.8-13.6"/><path clip-path="url(#b)" fill="#FFD800" d="M326.9 69.8s6.9 18.2 14.9 18.6c4.9.1 10.4-.9 6.7-18.6h-21.6z"/><path clip-path="url(#b)" d="M287.9 101.2c0-1.4-1.3-2.5-2.9-2.5-1.6 0-2.9 1.2-2.9 2.5 0 1.4 1.3 2.6 2.9 2.6 1.6 0 2.9-1.2 2.9-2.6M291.1 99.1c-1.5 0-2.6 1-2.6 2.4s1.2 2.5 2.6 2.5c1.5 0 2.6-1.1 2.6-2.5s-1.1-2.4-2.6-2.4M268.4 92.5c5.6 2.4 12.3 3.6 19.5 3.6.9 0 1.9-.1 2.7-.1h.3c.1 0 6.4 0 9.5-.4.4-.1.9-.2 1.3-.2 1.4-.2 2.9-.4 4.3-.8 2.6-.4 4.9-1.6 6.4-2.5 3.4-2.1 5-5.3 4.2-8.6 0 0-.1-.6-.2-.9-.6-2.4-1.2-3.7-2.6-5.4-.5-.6-1-1.2-1.6-1.7-2.2-2.1-3.4-3.4-2-5.3.4-.4 1.1-.8 1.9-.8h4.7c1.2 0 2.3.1 3 1.4 2.3 4.2 7.4 12.9 7.5 13.1 5.4 8.5 12.6 9.7 16.4 9.7 5.4 0 10.4-2.6 11.4-6 0 0 .4-1.5.5-2.2.2-2.6.6-14.3-.6-18.4-.2-.9-1-1.5-2-1.3-.5 0-1 .3-1.2.7-.2.4-.3.8-.2 1.3 1 3.4 1.1 15.6.2 18.6 0 0 0 .1-.1.1-.6 1.3-1.9 2.3-3.9 2.9-1.9.6-3.6.8-5 .8-4.1 0-7.6-2.1-11.5-6.8-.5-1-6-11.5-9.5-15.4-1.1-1.2-2.1-1.6-3.9-1.6l-6.3-.1c-2.4.1-4.1.9-5 2.2-1.2 2.7-.7 5.4 1.5 7.2 2.7 2.4 4.6 4.4 5.2 7.7l.1.2s.1.3.1.4c.1.7 0 1.3-.1 1.9-.3 1.3-1.1 2.5-2.5 3.3-1.5 1-3.5 1.9-5.4 2.3h-.5c-.1 0-.2 0-.4.1-.9.2-1.8.3-2.7.4l-2.1.3c-2.3.3-6.6.3-8.4.3h-.2c-4.6.6-9.9 0-15.7-1.5-5.4-1.3-9.2-2.8-12.2-6.2-3.1-3.5-3.6-8.9-1.3-12.5 3-3.1 6.8-4.8 11.1-4.8 1.4 0 2.9.2 4.3.5l.1.1c1 .1 1.8-.5 1.9-1.5.1-.4-.1-.8-.3-1.1-.3-.4-.7-.6-1.3-.7-1.7-.5-3.4-.7-5.1-.7-4.9 0-9.5 2-13.1 5.6-2.6 2.7-3.4 6.7-2.2 11.2 1.6 5.4 5 9 11 11.6M399.6 76c-.7-.8-1.5-1.5-2.5-2.1-1.7-1.2-3.3-2.3-5.3-2.9-.6-.3-1.2-.5-1.8-.7-.9-.2-1.7-.5-2.6-.7-1.7-.6-3.5-1.1-5.4-1.5-3.8-.9-7.6-1.2-11.3-1.5-1.4-.1-2.7-.2-4.2-.4-.8.1-1.7 0-2.6 0h-1.6c-1.1 0-2 .1-2.9.1-.5.1-.9.4-1.2.7-.2.4-.3.8-.2 1.2.1.8.9 1.4 1.7 1.4.1 0 .2-.1.2-.1H366.3c1.5.2 3 .3 4.4.4 2.7.3 5.4.5 8.2 1 3.6.7 7 1.7 11.5 3.2 2.4.8 4.5 2.2 6.6 4.3 0 0 .1 0 .1.1l.3.4.1.1c.1.2.4.5.7.9.1.1.1.2.2.4l.1.1c.7 1.2 1 2.4 1 3.9 0 1.8-2 3.2-3.3 3.8l-.2-.1c-3.1 1.6-6.6 1.7-10 1.9l-2.4.2c-3 .1-6.1.4-9.3.4h-2.5c-2.1 0-3.7 0-5.3-.2-.9 0-1.6-.1-2.4-.1-1 0-1.6.1-2 .6-.2.2-.4.6-.4 1 .1 1 .7 1.2 1.4 1.5h.1c1.1.1 2 .3 2.9.3 1.3 0 2.6 0 3.9.1 1.3 0 2.6.1 3.9.1h.3c2.7-.1 5.4-.2 8-.3 1.2-.1 2.5-.1 3.7-.1 3.1-.2 6.6-.5 9.9-1.7.4 0 7-1.7 6.8-8.3 0-4.7-2.8-7.3-3-7.4"/><path clip-path="url(#b)" fill="#BA141A" d="M390.1 154H288.9c-5.6 0-10.1 4.5-10.1 10.1s4.5 10.2 10.1 10.2H390c5.6 0 10.1-4.5 10.1-10.2.1-5.6-4.4-10.1-10-10.1"/><path clip-path="url(#b)" fill="#ED1C24" d="M390.1 153.3H289c-5.2 0-9.4 4.2-9.4 9.4s4.2 9.4 9.4 9.4h101.1c5.2 0 9.4-4.2 9.4-9.4-.1-5.2-4.3-9.4-9.4-9.4"/><path clip-path="url(#b)" fill="#FFF" d="M294.3 165.9H293c-.3 0-.6 0-.8-.1-.6 1.8-2 3-4.2 3.6l-.2-.6c1.6-.5 2.6-1.5 2.9-3l.9-3.9.1-2.1 2-.4-.9 3.9c-.2.9.1 1.3.9 1.3h.9l-.3 1.3z"/><path clip-path="url(#b)" fill="#FFF" d="M295.1 168.5c-.1.5-.6.9-1.2.9-.5 0-.9-.4-.8-1 .1-.5.7-.9 1.2-.9s.9.4.8 1m4.1-4.8c-.3 1.4-1.4 2.3-2.9 2.3h-2.5l.3-1.4h2.1c.8 0 1.3-.4 1.5-1.2l.3-1.6.2-2 2-.4-1 4.3zm-1.5 4.8c-.1.5-.6.9-1.2.9-.5 0-.9-.4-.8-1 .1-.5.7-.9 1.2-.9s.9.4.8 1M304.9 155.8l-.7 2.1-1.7 8h-1.6l1.7-8 .2-1.9M309 165.9h-1.3c-.3 0-.6 0-.8-.1-.6 1.8-2 3-4.2 3.6l-.2-.6c1.6-.5 2.6-1.5 2.9-3l.9-3.9.1-2.1 2-.4-.9 3.9c-.2.9.1 1.3.9 1.3h.9l-.3 1.3z"/><path clip-path="url(#b)" fill="#FFF" d="M314.8 165.9h-1.2c-.6 0-1.1-.2-1.5-.5-.5.3-1 .5-1.6.5h-1.9l.3-1.4h1.5c.8 0 1.3-.4 1.5-1.2l.3-1.5.1-2 2-.4-.9 4c-.2.8.1 1.2.9 1.2h.8l-.3 1.3zm-2.4 2.6c-.1.5-.6.9-1.2.9s-.9-.4-.8-1c.1-.5.6-.9 1.2-.9.5 0 .9.4.8 1"/><path clip-path="url(#b)" fill="#FFF" d="M322.4 161.2l-.2.7c-.6 2.8-2 4-4.5 4h-3.4l.3-1.4h3.6c1.1 0 1.7-.3 2-.9-.3.1-.7.2-1.1.2-1.8 0-2.5-.8-2.1-2.5.2-.9.7-1.6 1.4-2 .6-.3 1.2-.5 1.8-.5.9 0 1.5.2 1.9.7.3.4.4 1 .3 1.7m-1.6.1c.2-1 0-1.5-.8-1.5s-1.3.6-1.5 1.7c-.2.9 0 1.4.7 1.4.5 0 .9-.1 1.3-.2.1-.5.2-.9.3-1.4m.7-4.5c-.1.5-.7.9-1.2.9-.6 0-.9-.4-.8-1 .1-.5.6-.9 1.2-.9s1 .4.8 1"/><path clip-path="url(#b)" fill="#FFF200" d="M345.2 162h-5.7l1-2.1h5.7"/><path clip-path="url(#b)" fill="#FFF" d="M356 165.9h-1.3c-.3 0-.6 0-.8-.1-.6 1.8-2 3-4.2 3.6l-.2-.6c1.6-.5 2.6-1.5 2.9-3l.9-3.9.1-2.1 2-.4-.9 3.9c-.2.9.1 1.3.9 1.3h.9l-.3 1.3z"/><path clip-path="url(#b)" fill="#FFF" d="M356.9 168.5c-.1.5-.6.9-1.2.9-.5 0-.9-.4-.8-1 .1-.5.7-.9 1.2-.9s.9.4.8 1m4-4.8c-.3 1.4-1.4 2.3-2.9 2.3h-2.5l.3-1.4h2.1c.8 0 1.3-.4 1.5-1.2l.3-1.6.2-2 2-.4-1 4.3zm-1.5 4.8c-.1.5-.6.9-1.2.9-.5 0-.9-.4-.8-1 .1-.5.7-.9 1.2-.9.6 0 .9.4.8 1M366.3 165.9H365c-1.5 0-2.2-.9-1.9-2.3l1.2-5.3.2-2 2-.4-1.6 7.4c-.2.9.1 1.3.9 1.3h.9l-.4 1.3z"/><path clip-path="url(#b)" fill="#FFF" d="M372.1 165.9h-1.2c-.6 0-1.1-.2-1.5-.5-.5.3-1 .5-1.6.5h-1.9l.3-1.4h1.5c.8 0 1.3-.4 1.5-1.2l.3-1.5.1-2 2-.4-.9 4c-.2.8.1 1.2.9 1.2h.8l-.3 1.3zm-.1-9.1c-.1.5-.6.9-1.2.9-.5 0-.9-.4-.8-1 .1-.5.7-.9 1.2-.9.6 0 .9.4.8 1"/><path clip-path="url(#b)" fill="#FFF" d="M372.9 168.5c-.1.5-.6.9-1.2.9-.5 0-.9-.4-.8-1 .1-.5.7-.9 1.2-.9s.9.4.8 1m4.1-4.8c-.3 1.4-1.4 2.3-2.9 2.3h-2.5l.3-1.4h2.1c.8 0 1.3-.4 1.4-1.2l.3-1.6.2-2 2-.4-.9 4.3zm-1.5 4.8c-.1.5-.6.9-1.2.9-.5 0-.9-.4-.8-1 .1-.5.7-.9 1.2-.9s.9.4.8 1M334 166.7h-7.3l.1-.6c.2 0 .5 0 .9-.1.4 0 .7-.1.8-.1.2-.1.3-.2.5-.3.1-.1.2-.3.3-.6l1.3-5.7h-2.2l.2-.8h.2c.5 0 1-.1 1.4-.2.4-.1.8-.3 1.1-.4.3-.2.6-.3.8-.5.2-.2.4-.3.5-.5h1.6c-.1.4-.2.9-.4 1.4-.1.5-.2.9-.3 1.4l-1.2 5.1v.4c0 .1 0 .3.1.4.1.1.2.2.3.2.1.1.4.1.7.2.3.1.6.1.8.1l-.2.6zM389.6 166.7h-7.3l.1-.6c.2 0 .5 0 .9-.1.4 0 .7-.1.8-.1.2-.1.3-.2.5-.3.1-.1.2-.3.3-.6l1.3-5.7H384l.2-.8h.2c.5 0 1-.1 1.4-.2.4-.1.8-.3 1.1-.4.3-.2.6-.3.8-.5.2-.2.4-.3.5-.5h1.6c-.1.4-.2.9-.4 1.4-.1.5-.2.9-.3 1.4l-1.2 5.1c0 .1 0 .2-.1.2v.2c0 .1 0 .3.1.4.1.1.2.2.3.2.1.1.4.1.7.2.3.1.6.1.8.1l-.1.6z"/><path clip-path="url(#b)" d="M10.7 115c-1.5-.2-2.9.2-4.2.5l-1.5.3c-.5.1-1.1.1-1.6.2-.6 0-1.1.1-1.7.2-.4.1-.7.3-.9.6-.2.3-.3.6-.2.8-.1.1-.1.3-.1.5 0 1.4.1 2.8.1 4.2.1 3.7.2 7.6.8 11.1 0 .7.7 1.3 1.4 1.3h.1c.8 0 1.4-.7 1.3-1.5-.2-1.4-.4-3.4-.6-5.3 1.1-.1 2.2-.3 3.3-.4 1-.2 2-.3 3-.4.4 0 .7-.2 1-.5.2-.3.3-.6.3-1-.1-.7-.7-1.2-1.4-1.2h-.2c-1 .1-2 .2-2.9.4-1 .2-2.1.3-3.2.4-.1-1-.1-1.9-.1-2.8 0-1.2 0-2.4-.1-3.7 1.9-.2 3.6-.5 5.4-1 .4-.1.9-.1 1.4 0h.6c.8 0 1.4-.6 1.4-1.4 0-.7-.7-1.3-1.4-1.3M30.7 131.8h-5.5c-1.7 0-3.5 0-5.4.1-.1-1.4-.2-2.7-.3-4.1l-.1-1.1c2.3-.2 3.8-.2 5.6-.2.8 0 1.4-.6 1.4-1.4 0-.7-.6-1.3-1.4-1.3-2.1 0-4.1 0-5.9.2-.1-1.2-.3-2.6-.5-4h.1c2.8-.1 5.6-.1 8.3-.9.4-.1.7-.3.9-.7.2-.3.2-.7.1-1-.2-.7-.9-1.2-1.8-.9-2.4.7-5 .7-7.5.8-.7 0-1.4 0-2.1.1-.8 0-1.4.6-1.4 1.4 0 .4.2.8.6 1.1v.3c.4 2.4.6 4.8.8 7.2.1 1.7.3 3.6.5 5.3v.8c0 .7.5 1.3 1.3 1.4h.9c1.9-.2 3.9-.2 5.5-.2h6c.8 0 1.4-.6 1.4-1.4 0-.9-.7-1.5-1.5-1.5M60.7 116.6h-.1c-1.1.1-2.2.2-3.6.2s-2.8-.1-4.2-.1c-2-.1-4.2-.2-6.2-.1-.8 0-1.4.6-1.4 1.4 0 .8.6 1.4 1.4 1.4 2-.1 3.9 0 5.9.1V134c0 .8.6 1.4 1.4 1.4.8 0 1.4-.6 1.4-1.4v-14.5c2 .1 3.9 0 5.5-.2.4 0 .8-.2 1-.5.2-.3.4-.6.3-1-.1-.6-.7-1.2-1.4-1.2M68 121.1c0-1.1 0-2.3-.1-3.5 0-.8-.6-1.4-1.4-1.4-.8 0-1.4.6-1.4 1.4 0 1.3 0 2.5.1 3.7 0 4.3.1 8.4.8 13 .2.6.7 1.1 1.4 1.1h.3c.4-.1.7-.3.9-.6.2-.3.2-.7.2-1-.7-4.5-.8-8.4-.8-12.7M90.7 117.9c-.2-.3-.5-.6-.8-.7-.7-.3-1.6.1-1.8.8-1 2.5-2.3 5.1-3.5 7.5-.9 1.7-1.7 3.5-2.5 5.2-1-1.5-1.9-3.2-2.9-4.7-1.6-2.7-3.2-5.5-5.1-8-.4-.6-1.3-.9-1.9-.5-.3.2-.6.5-.7.8-.1.4 0 .7.2 1.1 1.9 2.6 3.5 5.3 5 8 1.2 2.1 2.5 4.3 3.8 6.2l.3.6.1.1c.1.1.1.2.3.3.3.2.6.4 1 .4s.7-.2 1-.4l.6-.7.1-.1c1-2.5 2.2-4.9 3.3-7.2 1.2-2.4 2.5-5 3.5-7.6.2-.4.1-.8 0-1.1M102.3 119.6l-.5-1.3c0-.3-.2-.6-.5-.8-.6-.5-1.5-.4-2 .1l-.3.4c-3.7 5.3-6.7 10.3-9 15.2-.2.3-.2.7-.1 1 .1.4.4.6.8.8.7.3 1.5 0 1.9-.6.7-1.5 1.5-3.1 2.5-4.9h.2l1.1-.1c2.6-.1 5.3-.3 8-.2l1.4 2.4c.7 1.2 1.4 2.3 2.1 3.5.2.4.7.7 1.2.7.2 0 .5-.1.7-.2.3-.2.6-.5.7-.8.1-.3.1-.7-.1-1-3.2-5-5.8-9.7-8.1-14.2m.5 7c-2 0-4.1.1-6.2.2 1.2-1.9 2.3-3.7 3.5-5.5.7 1.6 1.6 3.3 2.7 5.3M45.1 126.1c-.1-.3-.3-.5-.4-.5l-.3-.2-.4-.2c-1.2-.7-2.6-1-3.9-1.3-1.5-.3-3-.6-4-1.5.7-2.4 3.4-3.7 5.8-3.9.4-.1.7-.3.9-.6.2-.3.3-.7.2-1-.1-.6-.7-1.1-1.4-1.1h-.2c-4 .3-7.4 2.9-8.2 6.1v.2c.3 3.1 3.2 3.7 5.7 4.3 1.2.3 2.5.6 3.4 1.1l.3.2c.2.7.1 1.5-.3 2.2-.5.9-1.4 1.6-2.4 1.9h-.4c-1.4-.2-2.6-.3-3.4-1.4-.6-.5-1.5-.4-2 .1-.3.3-.4.7-.4 1 0 .4.2.7.4.8 1.2 1.6 3.1 1.9 5 2.2.3 0 .6.1 1 .1h.2c.3 0 .7-.1 1-.4 2.9-1.1 4.8-4.1 4.2-7l-.4-1.1zM127.9 132.8h-.1c-.9.1-1.7 0-2.7-.2-.5-.1-1.1-.2-1.6-.2-1.4-.1-2.8 0-4.1.1-.8.1-1.6.1-2.3.2l-.5-.1c-.2-2.8-.4-5.7-.7-8.6l-.4-5.5c0-.7-.6-1.3-1.5-1.3-.4 0-.7.2-1 .5-.2.3-.4.6-.3 1l1.1 14.7v.4c0 .5.4 1 .9 1.2l.9.3h.1c.5 0 .9.1 1.4.1.9 0 1.9-.1 2.8-.1.9-.1 1.8-.1 2.8-.1.6 0 1.3.1 1.9.2.7.1 1.4.2 2.2.2.4 0 .7 0 1-.1.4 0 .7-.2 1-.5.2-.3.4-.6.3-1 .1-.7-.5-1.2-1.2-1.2M66.4 115h.1c.4-.1 2.2-.8 2.1-2 0-1.1-1.5-1.6-2.7-2l-.3-.1-.2.2c-.3.2-1.6 1.4-1.2 2.6.2.7.9 1.1 2 1.2l.2.1zM95 87c.5 0 1-.2 1.3-.5.4-.3.6-.7.6-1.2s-.2-1-.5-1.3c-.4-.4-.8-.6-1.4-.6-.5 0-1.1.1-1.5.4-.4.3-.6.8-.6 1.2 0 .5.1.9.5 1.3s.9.6 1.4.6c.1.1.2.1.2.1M32.9 95c-.3-2.3-.6-4.7-1.2-7.1-.2-.6-.4-1.2-.6-1.7-.3-.6-1-.9-1.6-.7-.3.1-.6.4-.7.7-.1.3-.1.6 0 .9.5 1.5 1 3.4 1.4 5.8l-7.6.7-.1-1.2c-.2-1.8-.4-3.5-.6-5.3 0-.7-.6-1.2-1.3-1.2-.7 0-1.2.6-1.2 1.3.2 1.4.3 2.8.5 4.2l.3 2.6c-.3.3-.5.6-.5 1 .1.5.3.8.7 1 .2 2.5.5 5.2.9 7.8 0 .6.6 1.1 1.2 1.1h.1c.3 0 .7-.2.9-.4.2-.2.3-.6.3-.9-.3-2.6-.6-5.1-.9-7.7l7.7-.7c0 .4.1.7.2 1.1.3 2.4.6 4.9 1.2 7.2 0 .7.6 1.2 1.3 1.2.7 0 1.2-.5 1.2-1.3 0-.4 0-.8-.1-1.2-.9-2.4-1.2-4.8-1.5-7.2m-10.6 9.3zM69.7 87.5c-3.7-1.4-7.5-1.3-11.1-1.2h-.8c-.7 0-1.3.6-1.3 1.2 0 .3.1.5.3.7.2 1.9.3 3.8.4 5.7.2 3.3.4 6.7.9 10.1.1.6.6 1 1.3 1h.2c.3-.1.6-.2.8-.5.2-.3.3-.6.2-.9-.2-1.6-.4-3.3-.5-4.9.9.3 1.8.4 2.9.4 1.5 0 3.2-.3 5.2-.9 3.3-1 5.4-4.1 4.8-7.2-.4-1.5-1.5-2.8-3.3-3.5m-9 1.3h1.6c3.3 0 5.8.4 7.8 2.1.7.6.5 1.7.1 2.6-.6 1.3-1.7 2.2-3 2.5-2.2.5-4.7.9-6.3.4-.1 0-.3-.1-.5-.1s-.3 0-.4.1c0-.9-.1-1.9-.2-2.8l-.3-4.8h1.2m-1.4 15.6zM88.7 88.2c-3.7-1.4-7.6-1.3-11.2-1.2h-.7c-.7 0-1.3.5-1.3 1.2 0 .3.1.5.2.7.2 1.9.3 3.8.4 5.7.2 3.3.4 6.7.9 10.1.1.6.6 1 1.3 1h.2c.3-.1.6-.2.8-.5.2-.3.3-.6.2-.9-.2-1.7-.4-3.3-.5-4.9.9.3 1.8.4 2.9.4 1.6 0 3.2-.3 5.2-.9 3.3-1 5.4-4.1 4.9-7.2-.4-1.5-1.5-2.8-3.3-3.5m-9 1.2h1.7c3.2 0 5.8.3 7.8 2.1.8.7.3 2.2 0 2.6-.6 1.3-1.7 2.2-3 2.5-1.4.3-2.9.7-4.3.7-.8 0-1.5-.1-2-.3-.1-.1-.3-.1-.5-.1s-.3 0-.4.1c0-.9-.1-1.8-.2-2.7l-.3-4.8c.3 0 .7-.1 1.2-.1m-1.4 15.7zM137.7 100.3c-.2-.9-.5-1.8-.8-2.7l-.3-1.1c.2-.5 0-1.1-.5-1.4-.6-.3-1.3-.2-1.7.3l-.2.2c-.2.2-.2.5-.2.7-.8 3.3-4.7 4.1-7.7 4.3l-2.9-.2-.2-.2c-.6-.5-.9-1.3-1-2.2-.3-4.5 3.9-7.7 7.5-9.1 1.2-.4 2.8-.2 4.3 0 .3.1.6.1.9.1h.2c.6 0 1.1-.4 1.2-1 .1-.7-.3-1.3-1-1.4-3.9-1.1-7.8-.3-11 2.3-2.1 1.7-4.5 4.7-4.7 7.9-.2 1.9.4 3.6 1.7 5l.8.6c.2.1.4.2.6.2l1.7.3c.4 0 .9.1 1.3.1 2 0 6.5-.4 9.2-3.2.1.2.1.5.2.7.3 1.2.7 2.5 1.1 3.7.1.5.6.9 1.2.9.1 0 .2 0 .4-.1.3-.1.6-.3.8-.6.2-.3.2-.6.1-.9-.5-1-.8-2.1-1-3.2M115.3 88.1h-.3c-.3.1-.6.3-.8.6-.2.3-.2.6-.1 1 .8 3.5 1.6 7.1 2 10.6-2.1-1.9-4.3-3.7-6.5-5.4-2.2-1.8-4.5-3.6-6.6-5.6v-.8-.7c0-.7-.6-1.2-1.3-1.2-.7 0-1.3.6-1.3 1.2V89c-.2.2-.2.5-.2.7 0 .3.2.6.4.8l.1.1v.1c-.1.2-.1.4 0 .5.4 3.4.6 6.9.8 10.3l.1 2.2c.1.6.3 1.1.5 1.5.2.4.6.7 1.1.7.2 0 .4 0 .6-.1.3-.1.5-.4.6-.7.1-.3.1-.6 0-.8-.5-2.2-.6-4.5-.7-6.8 0-1.4-.1-2.9-.3-4.3 1.6 1.4 3.3 2.7 4.9 4 2.6 2.1 5.2 4.2 7.7 6.5.1.1.1.2.2.5v.4c0 .7.6 1.2 1.3 1.2.7 0 1.3-.5 1.3-1.2-.1-5.4-1.3-10.8-2.4-15.7-.1-.5-.6-.8-1.1-.8M95.7 89.2h-.2c-.4.1-.7.3-.8.6-.2.3-.2.6-.1.9.9 3.9 2 8.7 2.1 13.4 0 .7.6 1.2 1.3 1.2.7-.1 1.2-.7 1.2-1.3-.1-4.4-1-8.7-2.2-13.9-.2-.6-.7-.9-1.3-.9m2.2 15.5zM50.8 89.2l-.5-.7s0-.1-.1-.1c0 0 0-.1-.1-.2-3.3-4.5-7.8-3.6-8-3.5l-.4.1c-1.6.4-3.1 1.2-4.2 2.5-1.9 2.2-2.9 5.7-2.5 9 .4 3.2 2.6 6.2 5.7 7.7 1.3.6 2.6.9 3.9.9 1.4 0 2.9-.4 4.3-1.2 2.1-1.3 3.4-3.1 3.9-5.4.6-2.6-.1-6-2-9.1zm-8.4-2c3.8-.3 5.5 2.2 5.6 2.3l.2.3c1.5 2.1 2.7 5.2 2.2 8-.3 1.6-1.2 2.9-2.7 3.8-1.8 1.1-3.8 1.2-5.8.3-2.3-1.1-4-3.4-4.4-5.8-.3-2.1.2-5.2 1.9-7.2.9-.8 1.8-1.4 3-1.7M7.3 92.9h-.2c-1.8-.4-4.4-1.6-4.4-2.2 0-.6 1.5-1.3 2.6-1.7.7-.2 1.5-.4 2.6-.4 1.9 0 3.7.4 3.7.4s.2.1.4.1c.9 0 1.3-.6 1.3-1 0-.9-.6-1.3-1-1.4l-.3-.1c-1.1-.2-2.3-.3-3.5-.3-4 0-8.4 1.5-8.4 4.2 0 3.4 4.7 4.4 4.8 4.4 4.8 1.2 10 3.2 10 4.3 0 2.2-4.1 2.7-6.6 2.7-2.2 0-5.4-1.1-6.3-1.6-1.2-.6-1.9.1-1.9.8 0 .4.2.8.5 1.1 1.5 1.5 6.6 2.2 7.8 2.2 1.4 0 9.1-.9 9.1-4.8.1-3.6-5.5-5.6-10.2-6.7"/><path clip-path="url(#b)" fill="#ED1C24" d="M128.1 38.7c0-2 2.3-3.6 5.2-3.6 2.8 0 5.1 1.6 5.1 3.6s-2.3 3.6-5.1 3.6c-2.9 0-5.2-1.6-5.2-3.6M16.9 49.3L19 68.8s16.1-3.4 17-8.4c.8-5-15.7-10.9-19.1-11.1"/><path clip-path="url(#b)" fill="#FFD800" d="M52 44s-.7 29.1 3.3 28.5c7.7-1.3 5.6-27.2 5.6-27.2C57.2 41.4 52 44 52 44"/><path clip-path="url(#b)" fill="#ED1C24" d="M80 48.7l.4 6.7 9.7-4.4s-10-2.1-10.1-2.3M81.3 67.2l.4 4.4 8.7-1.4"/><path clip-path="url(#b)" fill="#00A651" d="M114.6 52.6l-2.7 9.1 6.9-1.1s-2.7-6.9-4.2-8"/><path clip-path="url(#b)" d="M127.1 64.2l.9.3c1 .4 2.2-.1 2.6-1.1.2-.5.2-1 0-1.5s-.6-.9-1-1c-1.1-.7-2.5-.9-4.4-.6-2.2-4.2-4.3-7.9-6.6-11.5l-2.7-3.2-.2-.2c-.7-.3-1.5-.3-2.1 0l-.8.5c-1.1.7-1.7 1.7-2.2 2.6-1.7 3.9-3.1 7.9-4.4 11.7-.5 1.4-1 2.8-1.5 4.3-.6.1-1.2.2-1.8.4-.5.1-1 .4-1.3.8-.3.4-.4.9-.3 1.5.2.9.9 1.5 1.8 1.6-.6 1.5-1.1 2.9-1.7 4.2-.2.5-.2 1 0 1.5s.6.9 1.1 1c1 .4 2.2-.1 2.6-1 .9-1.9 1.8-4 2.7-6.6l3.2-.7c3.9-.8 7.8-1.6 11.8-2.5 1.7 3.4 3.3 7 4.8 10.7.3.7 1.1 1.2 1.8 1.2.3 0 .5 0 .8-.1.5-.2.9-.6 1.1-1.1.2-.5.2-1 0-1.5-1.2-3.3-2.6-6.5-4.2-9.7m-6-3c-3.5.7-7 1.5-10.5 2.2l-1.2.2c.3-1 .7-2 1-3 1.2-3.4 2.4-6.9 3.8-10.3.1-.2.1-.3.2-.4 2.4 3.5 4.6 7.2 6.7 11.3M66.6 44v-.5c-.2-1-1-1.7-2-1.7h-.2c-.6.1-1.1.3-1.4.8-.3.4-.4.9-.4 1.3v1.2c.1 6.2.2 12.6-.8 18.7-.8 5.1-2.5 8.6-5.3 11.2-.4.3-.9.4-1.3.2-3.7-2-4-6.5-4.2-10.8 0-1.1-.1-2.1-.2-3.1-.7-6.3-.5-12.4-.1-18.6.2-1.1-.6-2-1.8-2.2h-.2c-1 0-1.9.7-2 1.8-.4 5.6-.7 12.2 0 19.5.1.8.1 1.6.2 2.5.4 5.3.8 11.3 6.2 14.3l.2.1c.7.1 1.3.2 1.9.2 6.9 0 9.6-8.9 10.6-14.2 1.1-6.9.9-13.9.8-20.7M44.1 58.4l-.1-.3c-1.3-2.3-2.7-3-2.7-3C30.7 47.7 18 43.4 5.8 39.2l-3.2-1.1c-1-.3-2.2.2-2.6 1.2-.2.5-.1 1 .1 1.5s.7.8 1.2 1c1.6.5 3.1 1.1 4.7 1.6 1.6.6 3.2 1.1 4.9 1.7v.1l.6 8.4c.5 6.1.9 12.5 1.5 18.8 0 .4.2.7.4 1-2.4.6-4.8 1.2-7.2 1.7l-1.2.3c-.6.1-.8.6-1 .9-.3.3-.6.7-.6 1.2-.1.5.1 1 .4 1.4.4.5 1 .8 1.6.8.4 0 .9-.1 1.2-.4.2-.1.3-.2.4-.3l.1-.1c6.9-1.6 13.3-3.5 20.2-5.6 5.1-1.5 10-3.9 14.8-7.2 1.4-.8 3.6-3.2 2.2-7l-.2-.7zm-28.3-2.3c-.2-3.2-.5-6.4-.7-9.5 7.6 2.8 16.2 6.4 23.6 11.6l1.7 1.9s.2.4 0 1.1c-.5 2.8-8.5 5.8-13.2 7.6l-1.6.6c-2.9 1.1-5.7 2-8.6 2.8v-.4c-.4-5.1-.8-10.5-1.2-15.7M134 44.2c-.5.2-.9.5-1.2 1-.2.5-.2 1-.1 1.5 4.1 11.2 6 21 5.9 30.2.1 1.1.9 1.9 2 1.9s2-.9 2-2c.1-9.8-1.9-20-6.2-31.4-.2-1-1.3-1.5-2.4-1.2"/><path clip-path="url(#b)" d="M97.5 67.9l-1.9-1.2c-5.2-2.2-10.7-3.7-15.9-5.2 2.2-.9 4.4-1.9 6.5-2.8 1.3-.6 2.7-1.2 4.1-1.8l6.4-3.9c.2-.2.4-.5.6-.9l.4-1.2c.2-.6.1-1.2-.3-1.7l-.9-1.1c-.2-.3-.5-.5-.8-.6l-2.6-1.1c-3.3-1.1-6.8-2.1-10.1-3.1-1.7-.5-3.4-1-5-1.4l-.1-.6c-.1-1-1-1.8-2-1.8h-.2c-.6.1-1 .3-1.4.7-.1.1-.2.2-.2.4-.4-.1-.8-.2-1.2-.4-1-.4-2.2.2-2.6 1.1-.2.5-.2 1.1.1 1.6.2.5.6.8 1.1 1 .8.3 1.6.5 2.4.8l.3.1c.1 1.8.3 3.6.4 5.5.2 2.9.4 5.8.7 8.8-.6.2-1.1.4-1.7.6l-.9.3c-.4.1-.7.3-.8.5-.4.4-.6.9-.6 1.5 0 .5.3 1 .7 1.4l1.2.8.3.2c.7.1 1.5.3 2.2.4l.9 8.1c-3.3 0-6.7-.1-10-.3h-1.3c-1.1 0-2 .8-2 1.9 0 .5.2 1 .5 1.4.4.4.9.6 1.4.7 1.3 0 2.5.1 3.8.1 2.9.1 5.9.2 8.8.2.4.2.7.3 1.1.3h.3c.4 0 .7-.2.9-.4 2-.1 3.7-.3 5.4-.5l10.3-2.2c.4-.1.7-.3 1-.6l1.1-1.3c.2-.3.4-.7.4-1.2v-1.2c.1-1-.3-1.6-.8-1.9m-3.6 2.2l.1.1-4.1 1.1c-2.8.7-5.8 1.1-9.2 1.3-.3-2.3-.6-4.7-.8-7 4.5 1.1 9.1 2.6 14 4.5M78.7 51.7c-.1-1.9-.3-3.8-.4-5.7 1.2.4 2.4.7 3.7 1.1 3.2.9 6.5 1.9 9.6 2.9l1.7.7-.7.6c-4.3 2.2-8.9 4.3-13.5 6.2-.1-2-.2-3.9-.4-5.8m.3 24.5z"/><path clip-path="url(#b)" fill="#BA141A" d="M122.4 154H21.2c-5.6 0-10.2 4.5-10.2 10.1s4.5 10.2 10.2 10.2h101.1c5.6 0 10.1-4.5 10.1-10.2.1-5.6-4.4-10.1-10-10.1"/><path clip-path="url(#b)" fill="#ED1C24" d="M122.3 153.3H21.2c-5.2 0-9.4 4.2-9.4 9.4s4.2 9.4 9.4 9.4h101.1c5.2 0 9.4-4.2 9.4-9.4s-4.2-9.4-9.4-9.4"/><path clip-path="url(#b)" fill="#FFF" d="M42.6 164.5c-.1.5-.3 1-.6 1.4-.3.4-.6.8-1 1-.4.3-.8.5-1.2.6-.4.2-.9.2-1.3.2-.9 0-1.6-.2-2.1-.6-.5-.4-.8-1-.8-1.7 0-.4.1-.8.4-1.1.3-.3.6-.4 1-.4s.7.1 1 .4c.2.2.3.5.3.9 0 .2 0 .4-.1.6-.1.2-.2.4-.5.6l-.4.4v.1c0 .1.1.2.3.3.1.1.3.1.4.1.5 0 .9-.2 1.3-.6.3-.4.6-1 .8-1.9l1.3-5.6c0-.1 0-.2.1-.3v-.1c0-.2-.1-.4-.3-.5-.2-.1-.5-.2-1-.3l.1-.5h5.5l-.1.5c-.2 0-.3 0-.5.1-.2 0-.4.1-.5.1-.2.1-.3.2-.4.3-.1.1-.1.3-.2.5l-1.5 5.5zM30.2 168h-8.1l.2-.7c.2 0 .5 0 1-.1.4-.1.7-.1.9-.2.2-.1.4-.2.5-.3.2-.2.3-.4.3-.6l1.5-6.3H24l.2-.9h.3c.6 0 1.1-.1 1.6-.2s.9-.3 1.2-.4c.3-.2.7-.4.9-.6.3-.2.5-.4.6-.5h1.7c-.1.5-.3 1-.4 1.5-.1.5-.3 1-.4 1.5l-1.3 5.6c0 .1 0 .2-.1.3v.3c0 .2 0 .3.1.4l.3.3c.1.1.4.2.8.2.4.1.7.1.9.1l-.2.6zM90.3 168h-8.1l.2-.7c.2 0 .5 0 1-.1.4-.1.7-.1.9-.2.2-.1.4-.2.5-.3.2-.2.3-.4.3-.6l1.5-6.3h-2.5l.2-.9h.3c.6 0 1.1-.1 1.6-.2s.9-.3 1.2-.4c.4-.2.7-.4.9-.6.3-.2.5-.4.6-.5h1.7c-.1.5-.3 1-.4 1.5-.1.5-.3 1-.4 1.5l-1.3 5.6c0 .1 0 .2-.1.3v.3c0 .2 0 .3.1.4l.3.3c.1.1.4.2.8.2.4.1.7.1.9.1l-.2.6zM49.3 166.7c-.2.1-.4.3-.5.4-.2.1-.3.2-.6.4l-.6.3c-.2.1-.5.1-.7.1-.8 0-1.5-.2-1.9-.7-.4-.5-.6-1.1-.6-2 0-.7.1-1.3.3-1.8.2-.6.5-1.1.9-1.5.4-.4.9-.8 1.4-1 .5-.3 1.1-.4 1.7-.4.4 0 .8 0 1.1.1.3.1.6.2.8.4l2.2-.5.1.1-1 4.4c0 .1-.1.3-.1.6 0 .2-.1.4-.1.5 0 .3.1.5.2.6.1.1.3.2.6.2.1 0 .3 0 .5-.1s.3-.1.4-.1l-.2.6c-.5.2-.8.3-1.1.4-.3.1-.6.1-1 .1-.5 0-.9-.1-1.2-.3-.3-.3-.5-.5-.6-.8m.8-4.6v-.4c0-.1-.1-.3-.1-.4l-.3-.3c-.1-.1-.3-.1-.5-.1-.3 0-.6.1-.9.3-.3.2-.5.5-.7.9-.2.4-.4.8-.5 1.3-.1.5-.2 1-.2 1.5 0 .2 0 .5.1.7 0 .2.1.4.2.5.1.1.2.3.3.3.2.1.3.1.6.1.2 0 .4-.1.6-.2.2-.1.4-.3.6-.5l.8-3.7z"/><path clip-path="url(#b)" fill="#FFF" d="M62.6 166.4l-.2.6c-.5.2-.8.3-1.1.4-.3.1-.6.1-1 .1-.6 0-1-.1-1.3-.4-.3-.3-.5-.6-.5-1.1v-.4c0-.2.1-.4.1-.7l.5-1.9c.1-.2.1-.4.1-.6v-.4c0-.2-.1-.4-.2-.5-.1-.1-.3-.2-.6-.2-.2 0-.4.1-.7.2-.3.1-.6.4-1 .7l-1.2 5.1h-2.4l1-4.4c0-.1.1-.3.1-.5s.1-.4.1-.5c0-.3-.1-.5-.2-.6-.1-.1-.3-.2-.6-.2-.2 0-.3 0-.5.1s-.3.1-.4.1l.2-.6c.4-.2.7-.3 1.1-.4.4-.1.7-.2 1-.2.6 0 1 .1 1.3.3.3.2.5.5.6.9.5-.4 1-.8 1.4-1 .5-.2 1-.4 1.6-.4.5 0 .9.1 1.2.4.3.3.5.6.5 1v.5c0 .2-.1.4-.1.6l-.5 2c0 .2-.1.4-.1.6 0 .2-.1.4-.1.5 0 .3.1.5.2.6.1.1.3.2.6.1.1 0 .3 0 .5-.1.4.4.5.4.6.3"/><path clip-path="url(#b)" fill="#FFF200" d="M76.1 163h-6.3l.5-2.2h6.3"/><path clip-path="url(#b)" fill="#FFF" d="M106.6 157.4l-.6 2.7h-.6c0-.4-.2-.9-.5-1.3s-.5-.7-.8-.7c-.1 0-.3 0-.6-.1h-2.2l-.9 4h1c.3 0 .5 0 .7-.1.2-.1.5-.2.7-.4.1-.1.3-.3.5-.6s.3-.5.4-.7h.5l-1 4.3h-.5v-.2c0-.2 0-.5-.1-.7-.1-.2-.1-.4-.2-.5-.1-.2-.3-.3-.5-.4-.2-.1-.4-.1-.7-.1h-1l-.7 3.3c0 .1 0 .2-.1.2v.2c0 .2.1.4.3.5.2.1.5.2 1 .2l-.1.5h-5.5l.1-.5c.1 0 .3 0 .5-.1.2 0 .4-.1.5-.1.2-.1.3-.1.4-.3.1-.1.2-.3.2-.4l1.6-7.1v-.3-.2c0-.2-.1-.4-.3-.5-.2-.1-.5-.2-1-.3l.1-.5 9.4.2zM108.5 167.7c-.6 0-1.1-.1-1.5-.2-.4-.2-.8-.4-1.1-.6-.3-.3-.5-.6-.6-1-.1-.4-.2-.8-.2-1.2 0-.6.1-1.1.3-1.6.2-.5.5-1 .9-1.4.4-.4.9-.7 1.5-1 .6-.3 1.3-.4 2-.4.9 0 1.5.1 1.9.4.4.3.7.7.7 1.2s-.2 1-.6 1.3c-.4.4-.9.6-1.6.8-.5.2-1 .3-1.3.3-.4.1-.8.1-1.3.2 0 .2 0 .4.1.7.1.3.1.5.2.7.1.2.3.4.5.5.2.1.5.2.8.2.6 0 1-.1 1.4-.3.4-.2.8-.6 1.1-1l.5.4c-.4.6-1 1.1-1.6 1.5-.7.3-1.4.5-2.1.5m1.6-5.7c0-.4-.1-.7-.2-.9-.1-.2-.3-.3-.6-.3-.4 0-.7.3-1 .9-.3.6-.5 1.3-.6 2.3.3 0 .6-.1.8-.1.3-.1.5-.1.7-.2.4-.2.6-.4.8-.6 0-.3.1-.6.1-1.1M121 162.9c0 .6-.1 1.3-.3 1.8-.2.6-.5 1.1-.9 1.5-.4.4-1 .8-1.5 1-.6.2-1.3.4-2 .4-.2 0-.4 0-.8-.1-.3 0-.6-.1-.9-.2-.3-.1-.7-.3-1-.5-.3-.2-.6-.5-.8-.9l1.8-7.7v-.2-.2c0-.2 0-.3-.1-.4-.1-.1-.1-.2-.3-.2-.1-.1-.2-.1-.4-.1-.1 0-.3 0-.5-.1l.1-.5 3.8-.2.1.1-1.1 4.6c.1-.1.2-.2.4-.3.1-.1.3-.2.5-.3.2-.1.4-.2.6-.2.3-.1.5-.1.7-.1.8 0 1.5.2 1.9.7.5.6.7 1.3.7 2.1m-2.5 0v-.6c0-.2-.1-.4-.2-.5-.1-.1-.2-.3-.3-.3-.1-.1-.3-.1-.5-.1s-.5.1-.7.2c-.2.1-.4.3-.6.5l-.9 4c0 .1 0 .2.1.3 0 .1.1.2.2.4l.3.3c.1.1.3.1.5.1.3 0 .6-.1.9-.4.3-.2.5-.6.7-.9.2-.4.4-.9.5-1.3-.1-.6 0-1.1 0-1.7"/></svg>